HIERARCHY
ROOT Hips
{
	OFFSET -3.958830 18.904000 13.208200
	CHANNELS 6 Xposition Yposition Zposition Zrotation Yrotation Xrotation 
	JOINT LHipJoint
	{
		OFFSET 0.000000 0.000000 0.000000
		CHANNELS 3 Zrotation Yrotation Xrotation
		JOINT LeftUpLeg
		{
			OFFSET 1.800000 -1.400000 0.085000
			CHANNELS 3 Zrotation Yrotation Xrotation
			JOINT LeftLeg
			{
				OFFSET 2.215000 -6.000000 0.000000
				CHANNELS 3 Zrotation Yrotation Xrotation
				JOINT LeftFoot
				{
					OFFSET 2.500000 -6.900000 0.000000
					CHANNELS 3 Zrotation Yrotation Xrotation
					JOINT LeftToeBase
					{
						OFFSET 0.200000 -0.500000 1.950000
						CHANNELS 3 Zrotation Yrotation Xrotation
						End Site
						{
							OFFSET 0.000000 0.000000 0.000000
						}
					}
				}
			}
		}
	}
	JOINT RHipJoint
	{
		OFFSET 0.000000 0.000000 0.000000
		CHANNELS 3 Zrotation Yrotation Xrotation
		JOINT RightUpLeg
		{
			OFFSET -1.800000 -1.400000 0.085000
			CHANNELS 3 Zrotation Yrotation Xrotation
			JOINT RightLeg
			{
				OFFSET -2.215000 -6.000000 0.000000
				CHANNELS 3 Zrotation Yrotation Xrotation
				JOINT RightFoot
				{
					OFFSET -2.500000 -6.900000 0.000000
					CHANNELS 3 Zrotation Yrotation Xrotation
					JOINT RightToeBase
					{
						OFFSET -0.200000 -0.500000 1.950000
						CHANNELS 3 Zrotation Yrotation Xrotation
						End Site
						{
							OFFSET 0.000000 0.000000 0.000000
						}
					}
				}
			}
		}
	}
	JOINT LowerBack
	{
		OFFSET 0.000000 0.000000 0.000000
		CHANNELS 3 Zrotation Yrotation Xrotation
		JOINT Spine
		{
			OFFSET -0.087000 1.940000 -0.288900
			CHANNELS 3 Zrotation Yrotation Xrotation
			JOINT Spine1
			{
				OFFSET 0.000000 1.950000 0.060000
				CHANNELS 3 Zrotation Yrotation Xrotation
				JOINT Neck
				{
					OFFSET 0.000000 0.000000 0.000000
					CHANNELS 3 Zrotation Yrotation Xrotation
					JOINT Neck1
					{
						OFFSET 0.000000 1.600000 0.340000
						CHANNELS 3 Zrotation Yrotation Xrotation
						JOINT Head
						{
							OFFSET 0.000000 1.667000 -0.240000
							CHANNELS 3 Zrotation Yrotation Xrotation
							End Site
							{
								OFFSET 0.000000 0.000000 0.000000
							}
						}
					}
				}
				JOINT LeftShoulder
				{
					OFFSET 0.000000 0.000000 0.000000
					CHANNELS 3 Zrotation Yrotation Xrotation
					JOINT LeftArm
					{
						OFFSET 2.700000 1.550000 -0.730000
						CHANNELS 3 Zrotation Yrotation Xrotation
						JOINT LeftForeArm
						{
							OFFSET 5.450000 0.000000 0.000000
							CHANNELS 3 Zrotation Yrotation Xrotation
							JOINT LeftHand
							{
								OFFSET 3.450000 0.000000 0.000000
								CHANNELS 3 Zrotation Yrotation Xrotation
								JOINT LeftHandIndex1
								{
									OFFSET 0.750000 0.000000 0.000000
									CHANNELS 3 Zrotation Yrotation Xrotation
									End Site
									{
										OFFSET 0.000000 0.000000 0.000000
									}
								}
							}
						}
					}
				}
				JOINT RightShoulder
				{
					OFFSET 0.000000 0.000000 0.000000
					CHANNELS 3 Zrotation Yrotation Xrotation
					JOINT RightArm
					{
						OFFSET -2.700000 1.550000 -0.730000
						CHANNELS 3 Zrotation Yrotation Xrotation
						JOINT RightForeArm
						{
							OFFSET -5.450000 0.000000 0.000000
							CHANNELS 3 Zrotation Yrotation Xrotation
							JOINT RightHand
							{
								OFFSET -3.450000 0.000000 0.000000
								CHANNELS 3 Zrotation Yrotation Xrotation
								JOINT RightHandIndex1
								{
									OFFSET -0.750000 0.000000 0.000000
									CHANNELS 3 Zrotation Yrotation Xrotation
									End Site
									{
										OFFSET 0.000000 0.000000 0.000000
									}
								}
							}
						}
					}
				}
			}
		}
	}
}
MOTION
Frames: 10
Frame Time: 0.016667
-1.329530 40.089550 -10.131120 -65.733667 9.152439 2.376895 -12.567202 2.958447 5.271180 61.848008 2.411061 -115.237689 166.043098 75.507312 -30.090575 36.774544 51.302099 -16.857397 -52.429570 -54.566550 -35.694430 22.006075 -12.999268 0.643941 106.204691 -5.369856 -39.190712 -137.615353 44.695561 -131.408665 0.577133 -16.467784 -54.271084 -145.468300 74.125580 -105.333860 -12.277252 16.219716 -12.129361 88.608576 -4.214086 48.975266 113.284116 8.006927 128.638652 54.470670 11.285051 -57.767953 -23.104726 47.280168 160.655524 -10.948290 -14.039790 79.379690 -101.687491 -24.014424 -15.250989 -153.980664 -1.759679 58.532133 176.228364 -10.649275 121.541899 -13.906715 -28.680811 -66.514890 -3.132400 40.996900 -58.170010 -42.444148 84.414813 48.356941 144.237534 -9.712904 96.707148 -179.965159 11.727201 98.827639 58.233249 33.079565 38.424110 38.242560 25.215680 92.298100 
-1.970450 35.299440 -10.093110 -56.740248 1.705476 -21.445626 -12.902352 2.122575 6.171190 60.725498 -19.944433 -123.788103 44.743272 45.907646 -165.896467 45.733468 38.567660 -15.538017 -53.980830 -54.733360 -35.593280 22.187678 -8.438661 3.176584 -126.047768 23.979527 -95.000432 43.060637 -38.387017 -27.498893 1.533071 -18.899501 -57.725372 -146.068240 74.029560 -97.051980 -12.810475 15.765831 -13.831750 113.242501 11.232537 62.377640 46.670404 50.130508 61.308875 84.733916 9.230107 -54.287020 -15.212665 8.787950 172.089314 -56.669720 3.377220 88.160810 -80.612569 -33.606786 -4.745992 -126.573317 1.390340 40.195997 -170.824990 -8.345607 77.684983 -26.733532 -22.465417 -66.870550 -8.743100 41.688830 -66.299380 -77.837714 36.957316 24.083177 129.578185 30.200473 95.310121 172.076849 11.061932 -18.587394 50.347944 40.642888 38.919290 35.592900 26.433670 93.150900 
-2.360860 41.791220 -2.834310 68.416257 44.059980 15.679302 -14.488081 22.069470 -4.719474 168.121116 75.713878 -114.920020 28.742257 32.904734 -155.443104 40.956468 16.780280 -28.281842 -52.709150 -50.489680 -37.929960 17.649930 -17.211647 3.310441 -115.055774 -37.359079 129.948150 40.364118 37.147508 40.626604 -5.390827 -22.571066 -59.439106 -145.969610 76.863630 -101.896940 -6.155896 -11.353712 2.386019 -65.733303 -74.456152 99.021616 31.334174 37.923327 -126.974116 8.213141 45.407400 -42.743349 37.473378 16.940877 -171.443074 22.239310 -19.567110 43.067130 -28.972040 -61.555155 29.172764 -160.031849 6.366595 115.647795 -169.548238 -1.771330 144.212061 -6.439406 -20.949443 -67.495840 -29.828770 52.956760 -63.058420 -167.761679 -15.584530 15.061732 -179.588362 -28.809733 171.716135 -161.909576 1.341668 -151.422829 82.443634 65.725507 40.867490 37.181930 22.543340 93.015810 
-3.042100 38.383620 -8.523890 78.181154 4.294781 11.968149 -14.376197 11.047355 6.254011 138.333044 23.241323 -100.210834 60.986840 51.988005 -108.349245 49.686638 25.406331 -22.066915 -53.731700 -51.854150 -38.755920 19.531272 -11.253337 0.892163 -54.842904 -32.804769 15.713469 -29.805084 -62.654592 46.250082 -6.739491 -16.366052 -58.473193 -150.629430 74.760610 -102.901900 -6.121688 -1.663406 -7.399345 131.762633 14.440029 88.019567 122.609720 -30.226601 70.454221 44.791393 26.148148 -49.204605 142.406849 51.156503 -55.944732 45.404470 -33.186720 46.659280 39.233246 -21.292342 31.873734 -151.098146 -22.135218 113.513430 -178.071976 8.932509 120.542374 5.369473 -9.004089 -73.180990 -22.728820 51.776890 -59.481180 -135.520642 -36.651771 27.528531 171.211357 -12.265976 90.832474 -158.668499 11.587632 -153.289146 79.650771 40.379833 39.266910 34.948530 21.854260 93.162310 
-2.667830 38.088550 -7.984270 82.548101 11.399027 9.397858 -13.119172 5.748718 4.606116 138.911660 31.144418 -88.433142 53.451977 42.632401 -117.221014 52.435229 19.822561 -24.445014 -54.007870 -52.284990 -38.884820 20.926190 -16.296541 2.415108 -55.420985 -32.957703 15.556475 -34.525460 -67.679489 53.977431 -5.278800 -17.456090 -59.926114 -151.286200 74.321750 -102.453670 -9.996573 16.256558 -9.509322 33.782468 -12.712458 78.615929 166.595944 -64.521431 83.175597 -1.362711 -7.104691 -86.688485 149.191769 76.753975 -52.381145 33.839330 -35.550020 57.313630 84.727349 -19.029531 21.828982 -155.625908 -11.122247 126.347947 173.135660 3.225226 118.478126 3.553887 -1.843784 -74.075880 -23.371010 50.964600 -60.726710 -92.284212 69.382543 23.094858 178.806991 27.888936 123.935369 -173.816219 -11.830471 -161.974918 98.488610 48.725273 39.024470 34.416190 22.029230 93.213280 
9.695810 38.593900 -0.466480 1.479146 5.715484 -51.481675 -17.973108 18.399596 6.217841 -82.542498 -10.240804 18.277740 12.780414 5.060078 -117.036345 47.501489 23.214285 -26.433206 -53.820090 -51.648900 -37.563950 15.997235 -2.740788 4.246499 -37.184171 -51.289153 86.784563 65.930862 -40.002262 -24.557206 -6.482689 -23.741701 -61.446965 -151.176310 77.696540 -102.520140 3.380667 -26.159566 -8.827883 -52.425589 0.650257 -137.498730 169.770407 -66.925756 41.638008 33.068587 -30.064923 -56.773043 -20.191238 -40.343784 -175.454563 -21.806180 -18.988180 59.206380 -102.750959 10.201303 -20.541756 -149.119515 -74.006264 104.886584 -167.969074 0.729285 108.509137 -25.223522 -15.624237 -70.088110 -36.280770 58.746490 -64.662780 25.308069 17.064544 61.935987 145.972962 76.537464 153.147662 173.492299 -9.799106 -125.139082 62.216880 15.279797 41.301980 34.434720 23.469090 94.423570 
6.388330 29.886830 30.890460 167.826091 -32.380058 -36.337960 -15.371793 17.458398 0.759338 67.970741 -2.673727 122.706656 173.993424 -33.135582 14.867088 18.370466 26.484961 -23.579981 -49.477150 -52.592880 -30.331570 18.117696 -6.823304 7.771909 177.227205 19.855000 -96.589884 -179.954595 69.057122 -164.933649 -6.390798 -15.290717 -46.096402 -127.942660 76.120850 -95.822220 -1.600357 -12.289242 -6.761295 -163.942652 -5.287316 -80.199477 -104.029831 18.108733 -51.608090 17.117116 -4.081861 -6.857084 76.163748 -46.167552 -84.787985 -140.762020 59.770620 129.493760 178.745707 81.628228 170.371954 55.461329 -35.067199 -145.380216 -176.208044 1.122052 -105.309003 -20.650426 -31.832359 -41.353970 -15.359410 41.827640 -67.289550 -30.277649 -83.994806 18.114704 -89.222067 -12.575270 -141.559882 -173.129125 -0.122884 -107.135608 50.783886 53.302896 44.705240 44.708230 28.974320 91.782180 
11.354420 30.979190 45.798850 -13.178507 -5.331019 -6.342989 -22.739538 25.075318 2.680021 74.210061 17.830207 83.153756 76.620395 88.995788 -119.498205 -107.718239 55.604557 -90.418302 -59.498530 -38.457340 -70.997100 10.349750 0.780342 5.318397 -49.515402 45.454330 -9.230492 8.335632 4.066154 6.698973 73.562214 -55.741925 -111.291058 87.715190 53.463010 72.232700 16.511173 -38.583477 -24.352420 33.494941 -18.394934 48.673286 129.032031 -17.839251 -88.447506 19.516501 -7.686461 -13.027043 106.442737 -48.520864 -87.831065 -135.182200 -77.060420 100.597930 18.484791 82.689961 19.248871 37.415330 52.697889 66.621109 136.253904 -14.214616 -53.379066 -80.833417 -17.009985 -67.577120 95.960130 -33.552950 -11.459390 -44.805848 -8.719387 4.848255 -1.394073 -7.538745 7.498453 -169.238861 -34.303006 -122.836139 -31.131604 -46.582493 -7.588060 37.010780 16.457370 109.178120 
13.614560 26.391120 48.136590 -61.987242 16.189517 -34.787597 -14.767765 9.224470 11.193224 -129.391758 31.597629 54.852032 37.745368 -41.235590 -170.422454 -117.622035 56.804289 -90.968712 -66.816850 -37.564120 -72.645430 18.196844 -19.055315 -4.754120 89.365642 -78.885075 -56.329715 158.793457 -56.247680 -141.092784 75.951643 -60.567366 -106.996187 88.987220 52.828670 70.584310 -3.753879 -23.080284 -0.379050 121.418925 -31.921173 -125.995823 15.443645 -82.648337 -21.611743 -10.867353 -29.062475 -46.006636 143.509966 -18.703547 -158.965123 -89.649960 -82.673380 65.577150 33.505554 47.030524 15.250985 36.857751 -36.168631 -170.470204 -160.781333 -34.249095 -111.910891 -43.949283 -25.248200 -66.746590 95.993300 -38.684840 -9.225320 -76.151011 -16.411179 31.746302 -8.404010 -59.747076 74.792482 -144.620181 -65.104634 -155.643499 -33.176901 -57.992961 -4.266870 36.822590 13.270650 108.789490 
5.827080 35.810310 31.867090 -143.371504 16.154926 -61.528805 -13.507300 4.652696 8.339872 -170.341096 40.368390 33.544933 148.974588 31.828450 -32.492251 50.802126 -4.603570 -19.149250 -56.332980 -58.742580 -32.693020 20.854713 -13.242860 2.058722 23.848780 -27.363401 -14.474445 -158.103201 39.987705 -152.908972 -20.933095 16.288854 -37.423023 -118.146030 41.749900 -41.681400 -10.918514 18.357408 -9.603342 31.685524 46.413122 -129.249338 -26.526616 7.870086 -109.661201 -52.005790 -12.957684 -28.692334 23.738980 16.913875 154.428051 112.380650 10.890880 162.761930 36.922998 -81.496549 99.000904 156.436211 -25.280438 -69.697938 173.595149 -1.037790 13.763529 59.038555 -25.997175 -74.401460 -46.202070 -2.436570 -90.662350 24.042068 20.311799 -13.726402 -3.058637 72.880339 108.672927 -165.888049 3.548709 -168.848926 75.196142 28.591596 47.203300 42.007300 31.205200 85.416810 
